# File produced by Open Asset Import Library (http://www.assimp.sf.net)
# (assimp v3.1.95221606)

mtllib Coffin%20mesh.mtl

# vertex positions
v -1.093090 -0.234144 3.530793
v 1.093090 -0.234144 3.530793
v 1.093090 0.234144 3.530793
v -1.093090 0.234144 3.530793
v -0.118402 1.950475 3.309370
v 0.118402 1.950475 3.309370
v 0.118402 1.950475 -3.309370
v -0.118402 1.950475 -3.309370
v -1.093090 0.234144 -3.530793
v 1.093090 0.234144 -3.530793
v 1.093090 -0.234144 -3.530793
v -1.093090 -0.234144 -3.530793
v 1.028594 0.234144 3.322467
v -1.028594 0.234144 3.322467
v 1.028594 0.234144 -3.322467
v -1.028594 0.234144 -3.322467
v 1.028594 1.284689 3.322467
v -1.028594 1.284689 3.322467
v 1.028594 1.284689 -3.322467
v -1.028594 1.284689 -3.322467
v -1.179176 1.260428 3.613660
v 1.179176 1.260428 3.613660
v 1.179176 1.494158 3.613660
v -1.179176 1.494158 3.613660
v 1.179176 1.260428 -3.613660
v 1.179176 1.494158 -3.613660
v -1.179176 1.260428 -3.613660
v -1.179176 1.494158 -3.613660

# UV coordinates
vt 0.145534 0.396491
vt 0.319788 0.396491
vt 0.319788 0.570745
vt 0.145534 0.570745
vt 0.696867 0.834682
vt 0.715742 0.834682
vt 0.715742 0.998008
vt 0.696867 0.998008
vt 0.001787 0.574327
vt 0.176042 0.574327
vt 0.176042 0.748581
vt 0.001787 0.748581
vt 0.182086 0.656846
vt 0.356340 0.656846
vt 0.356340 0.831100
vt 0.182086 0.831100
vt 0.362210 0.656846
vt 0.536464 0.656846
vt 0.536464 0.831100
vt 0.362210 0.831100
vt 0.542333 0.656846
vt 0.716588 0.656846
vt 0.716588 0.831100
vt 0.542333 0.831100
vt 0.721247 0.522701
vt 0.895502 0.522701
vt 0.890361 0.527842
vt 0.726388 0.527842
vt 0.895502 0.696955
vt 0.890361 0.691815
vt 0.721247 0.696955
vt 0.726388 0.691815
vt 0.001787 0.001992
vt 0.165760 0.001992
vt 0.165760 0.392910
vt 0.001787 0.392910
vt 0.171593 0.001992
vt 0.335566 0.001992
vt 0.335566 0.392910
vt 0.171593 0.392910
vt 0.505197 0.392910
vt 0.341224 0.392910
vt 0.341224 0.001992
vt 0.505197 0.001992
vt 0.510855 0.001992
vt 0.674828 0.001992
vt 0.674828 0.392910
vt 0.510855 0.392910
vt 0.680486 0.001992
vt 0.868464 0.001992
vt 0.868464 0.088965
vt 0.680486 0.088965
vt 0.717158 0.262347
vt 0.895502 0.262347
vt 0.895502 0.349320
vt 0.717158 0.349320
vt 0.711653 0.653264
vt 0.523675 0.653264
vt 0.523675 0.566291
vt 0.711653 0.566291
vt 0.339826 0.396491
vt 0.518170 0.396491
vt 0.518170 0.483465
vt 0.339826 0.483465
vt 0.334321 0.403677
vt 0.325293 0.396491
vt 0.334321 0.567649
vt 0.325293 0.574835
vt 0.783913 0.258765
vt 0.765038 0.258765
vt 0.887993 0.519120
vt 0.724666 0.519120
vt 0.608226 0.396491
vt 0.627101 0.396491
vt 0.510661 0.653264
vt 0.347335 0.653264

# vertex normals
vn 0.000000 0.000000 1.000000
vn 0.000000 1.000000 0.000000
vn 0.000000 0.000000 -1.000000
vn 0.000000 -1.000000 0.000000
vn 1.000000 0.000000 0.000000
vn -1.000000 0.000000 0.000000
vn 0.000000 1.000000 0.000000
vn 0.000000 1.000000 -0.000000
vn 0.000000 0.276424 0.961036
vn 0.554398 0.832252 0.000000
vn 0.000000 0.276424 -0.961036
vn -0.554398 0.832252 0.000000
vn 0.000000 -0.996547 -0.083030
vn 0.000000 -0.996547 -0.083030
vn -0.159068 -0.987268 0.000000
vn 0.000000 -0.996547 0.083030
vn 0.000000 -0.996547 0.083030
vn 0.159068 -0.987268 0.000000
vn 0.000000 0.554799 0.831984
vn 0.395163 0.918611 0.000000
vn 0.000000 0.554799 -0.831984
vn -0.395163 0.918611 0.000000

# Mesh
g pCube1
usemtl lambert1
f 4/4/1 1/1/1 2/2/1
f 2/2/1 3/3/1 4/4/1
f 8/8/2 5/5/2 6/6/2
f 6/6/2 7/7/2 8/8/2
f 12/12/3 9/9/3 10/10/3
f 10/10/3 11/11/3 12/12/3
f 1/16/4 12/13/4 11/14/4
f 11/14/4 2/15/4 1/16/4
f 3/20/5 2/17/5 11/18/5
f 11/18/5 10/19/5 3/20/5
f 9/24/6 12/21/6 1/22/6
f 1/22/6 4/23/6 9/24/6
f 14/28/7 4/25/7 3/26/7
f 3/26/7 13/27/7 14/28/7
f 13/27/2 3/26/2 10/29/2
f 10/29/2 15/30/2 13/27/2
f 15/30/8 10/29/8 9/31/8
f 9/31/8 16/32/8 15/30/8
f 16/32/2 9/31/2 4/25/2
f 4/25/2 14/28/2 16/32/2
f 18/36/1 14/33/1 13/34/1
f 13/34/1 17/35/1 18/36/1
f 17/40/5 13/37/5 15/38/5
f 15/38/5 19/39/5 17/40/5
f 19/44/3 15/41/3 16/42/3
f 16/42/3 20/43/3 19/44/3
f 20/48/6 16/45/6 14/46/6
f 14/46/6 18/47/6 20/48/6
f 24/52/9 21/49/1 22/50/1
f 22/50/1 23/51/9 24/52/9
f 23/56/10 22/53/5 25/54/5
f 25/54/5 26/55/10 23/56/10
f 26/60/11 25/57/3 27/58/3
f 27/58/3 28/59/11 26/60/11
f 28/64/12 27/61/6 21/62/6
f 21/62/6 24/63/12 28/64/12
f 21/66/14 18/65/13 17/65/13
f 17/65/13 22/66/14 21/66/14
f 22/66/15 17/65/15 19/67/15
f 19/67/15 25/68/15 22/66/15
f 25/68/17 19/67/16 20/67/16
f 20/67/16 27/68/17 25/68/17
f 27/68/18 20/67/18 18/65/18
f 18/65/18 21/66/18 27/68/18
f 5/70/19 24/52/9 23/51/9
f 23/51/9 6/69/19 5/70/19
f 6/72/20 23/56/10 26/55/10
f 26/55/10 7/71/20 6/72/20
f 7/74/21 26/60/11 28/59/11
f 28/59/11 8/73/21 7/74/21
f 8/76/22 28/64/12 24/63/12
f 24/63/12 5/75/22 8/76/22
